<?xml version="1.0" encoding="utf-8"?>
<!-- Generator: Adobe Illustrator 24.1.3, SVG Export Plug-In . SVG Version: 6.00 Build 0)  -->
<svg version="1.1" id="레이어_1" xmlns="http://www.w3.org/2000/svg" xmlns:xlink="http://www.w3.org/1999/xlink" x="0px"
	 y="0px" viewBox="0 0 449.6 325.1" style="enable-background:new 0 0 449.6 325.1;" xml:space="preserve">
<style type="text/css">
	.st0{fill:#2D68FF;}
	.st1{fill:#FF7235;}
	.st2{fill:#EFC325;}
	.st3{fill:#00E168;}
</style>
<g>
	<polygon class="st0" points="247.4,0 340.7,93.1 154.1,93.1 	"/>
</g>
<g>
	<rect x="138.6" y="186.2" class="st1" width="46.5" height="93.1"/>
</g>
<rect x="293.8" y="186.2" class="st2" width="46.5" height="93.1"/>
<g>
	<path class="st3" d="M154.4,186h46.5c0-25.6,20.8-46.4,46.4-46.4s46.4,20.8,46.4,46.4h46.7V93.3H154.4V186z"/>
</g>
<g>
	<rect x="123" y="278.6" class="st3" width="93.1" height="46.5"/>
</g>
<g>
	<rect x="247.5" y="278.6" class="st1" width="93.1" height="46.5"/>
</g>
<g>
	<polygon class="st0" points="408.8,121.8 449.6,162.5 368.1,162.5 	"/>
</g>
<rect x="368.1" y="243.5" transform="matrix(-1.836970e-16 1 -1 -1.836970e-16 693.1896 -124.5323)" class="st2" width="81.6" height="81.6"/>
<g>
	<rect x="355.8" y="162.5" class="st1" width="81.6" height="81.6"/>
</g>
<g>
	<polygon class="st0" points="81.6,162.3 81.6,243.8 0,243.8 	"/>
</g>
<g>
	<rect x="18.1" y="243.2" class="st1" width="81.6" height="81.6"/>
</g>
</svg>
