<?xml version="1.0" encoding="utf-8"?>
<!-- Generator: Adobe Illustrator 24.1.3, SVG Export Plug-In . SVG Version: 6.00 Build 0)  -->
<svg version="1.1" id="레이어_1" xmlns="http://www.w3.org/2000/svg" xmlns:xlink="http://www.w3.org/1999/xlink" x="0px"
	 y="0px" viewBox="0 0 449.6 325.1" style="enable-background:new 0 0 449.6 325.1;" xml:space="preserve">
<style type="text/css">
	.st0{fill:#AAAAAA;}
	.st1{fill:#CCCCCC;}
</style>
<g>
	<polygon class="st0" points="247.4,0 340.7,93.1 154.1,93.1 	"/>
</g>
<g>
	<rect x="138.6" y="186.2" class="st0" width="46.5" height="93.1"/>
</g>
<g>
	<path class="st1" d="M154.4,93.3V186h46.5c0-25.6,20.8-46.4,46.4-46.4c25.6,0,46.4,20.8,46.4,46.4h0.1v93.3h46.5V186V93.3H154.4z"
		/>
</g>
<g>
	<rect x="123" y="278.6" class="st1" width="93.1" height="46.5"/>
</g>
<g>
	<rect x="247.5" y="278.6" class="st0" width="93.1" height="46.5"/>
</g>
<g>
	<polygon class="st0" points="408.8,121.8 449.6,162.5 368.1,162.5 	"/>
</g>
<g>
	<rect x="368.1" y="243.5" class="st0" width="81.6" height="81.6"/>
</g>
<g>
	<rect x="355.8" y="162.5" class="st1" width="81.6" height="81.6"/>
</g>
<g>
	<polygon class="st0" points="81.6,162.3 81.6,243.8 0,243.8 	"/>
</g>
<g>
	<rect x="18.1" y="243.2" class="st1" width="81.6" height="81.6"/>
</g>
</svg>
