<?xml version="1.0" encoding="utf-8"?>
<!-- Generator: Adobe Illustrator 24.1.3, SVG Export Plug-In . SVG Version: 6.00 Build 0)  -->
<svg version="1.1" id="레이어_1" xmlns="http://www.w3.org/2000/svg" xmlns:xlink="http://www.w3.org/1999/xlink" x="0px"
	 y="0px" viewBox="0 0 203.1 203.1" style="enable-background:new 0 0 203.1 203.1;" xml:space="preserve">
<style type="text/css">
	.st0{fill:#2D68FF;}
	.st1{fill:#EFC325;}
	.st2{fill:#00E168;}
	.st3{fill:#FF7235;}
	.st4{fill:#777777;}
</style>
<g>
	<polygon class="st0" points="431.9,-247 463.4,-215.5 400.4,-215.5 	"/>
</g>
<g>
	<polygon class="st0" points="494.9,-184.3 526.5,-152.8 463.4,-152.8 	"/>
</g>
<rect x="400.4" y="-152.9" transform="matrix(-1.836970e-16 1 -1 -1.836970e-16 310.5336 -553.2587)" class="st1" width="63" height="63"/>
<g>
	<rect x="463.4" y="-152.9" class="st2" width="63" height="63"/>
</g>
<g>
	<rect x="400.4" y="-215.5" class="st3" width="63" height="63"/>
</g>
<g>
	<path class="st4" d="M139.2,79.3c-0.6,1.5-2.1,2.5-3.7,2.5H119v36.1v40.1c0,2.2-1.8,4-4,4H88.1c-2.2,0-4-1.8-4-4v-40.1V81.7H67.5
		c-1.6,0-3.1-1-3.7-2.5s-0.3-3.2,0.9-4.4l34-33.9c0.8-0.8,1.8-1.2,2.8-1.2c1,0,2,0.4,2.8,1.2l34,33.9
		C139.5,76.1,139.8,77.8,139.2,79.3z"/>
</g>
</svg>
