<?xml version="1.0" encoding="utf-8"?>
<!-- Generator: Adobe Illustrator 24.1.3, SVG Export Plug-In . SVG Version: 6.00 Build 0)  -->
<svg version="1.1" id="레이어_1" xmlns="http://www.w3.org/2000/svg" xmlns:xlink="http://www.w3.org/1999/xlink" x="0px"
	 y="0px" viewBox="0 0 16 39.9" style="enable-background:new 0 0 16 39.9;" xml:space="preserve">
<style type="text/css">
	.st0{fill:#FFFFFF;}
</style>
<path class="st0" d="M15.7,30.8c-0.4-0.4-1-0.4-1.4,0L9,36.1V1c0-0.6-0.4-1-1-1S7,0.4,7,1v35.1l-5.3-5.3c-0.4-0.4-1-0.4-1.4,0
	s-0.4,1,0,1.4l7,7c0,0,0,0,0,0L8,39.9l0.7-0.7c0,0,0,0,0,0l7-7C16.1,31.8,16.1,31.2,15.7,30.8z"/>
</svg>
