<?xml version="1.0" encoding="utf-8"?>
<!-- Generator: Adobe Illustrator 24.1.3, SVG Export Plug-In . SVG Version: 6.00 Build 0)  -->
<svg version="1.1" id="레이어_1" xmlns="http://www.w3.org/2000/svg" xmlns:xlink="http://www.w3.org/1999/xlink" x="0px"
	 y="0px" viewBox="0 0 100 100" style="enable-background:new 0 0 100 100;" xml:space="preserve">
<style type="text/css">
	.st0{fill:#333333;}
</style>
<g>
	<g>
		<g>
			<circle class="st0" cx="50.2" cy="50.1" r="16.6"/>
		</g>
	</g>
	<g>
		<path class="st0" d="M99.7,29.5c-0.2-5.3-1.1-8.9-2.3-12.1c-1.3-3.3-3-6.1-5.7-8.8c-2.8-2.8-5.6-4.5-8.8-5.7
			C79.6,1.6,76,0.8,70.7,0.5c-5.3-0.2-7-0.3-20.6-0.3S34.9,0.3,29.6,0.5s-8.9,1.1-12.1,2.3c-3.3,1.3-6.1,3-8.8,5.7
			c-2.8,2.8-4.5,5.6-5.7,8.8s-2.1,6.8-2.3,12.1s-0.3,7-0.3,20.6c0,13.5,0.1,15.2,0.3,20.6c0.2,5.3,1.1,8.9,2.3,12.1
			c1.3,3.3,3,6.1,5.7,8.8c2.8,2.8,5.6,4.5,8.8,5.7s6.8,2.1,12.1,2.3c5.3,0.2,7,0.3,20.6,0.3s15.2-0.1,20.6-0.3
			c5.3-0.2,8.9-1.1,12.1-2.3c3.3-1.3,6.1-3,8.8-5.7c2.8-2.8,4.5-5.6,5.7-8.8c1.2-3.2,2.1-6.8,2.3-12.1c0.2-5.3,0.3-7,0.3-20.6
			C100,36.5,99.9,34.8,99.7,29.5z M50.2,75.7c-14.1,0-25.6-11.5-25.6-25.6S36,24.5,50.2,24.5S75.8,36,75.8,50.1S64.3,75.7,50.2,75.7
			z M76.8,29.4c-3.3,0-6-2.7-6-6s2.7-6,6-6s6,2.7,6,6C82.7,26.8,80.1,29.4,76.8,29.4z"/>
	</g>
</g>
</svg>
