<?xml version="1.0" encoding="utf-8"?>
<!-- Generator: Adobe Illustrator 24.1.3, SVG Export Plug-In . SVG Version: 6.00 Build 0)  -->
<svg version="1.1" id="레이어_1" xmlns="http://www.w3.org/2000/svg" xmlns:xlink="http://www.w3.org/1999/xlink" x="0px"
	 y="0px" viewBox="0 0 252.1 220.8" style="enable-background:new 0 0 252.1 220.8;" xml:space="preserve">
<style type="text/css">
	.st0{fill:#FF7235;}
	.st1{fill:#2D68FF;}
	.st2{fill:#00E168;}
	.st3{fill:#EFC325;}
</style>
<g>
	<rect y="157.7" class="st0" width="63" height="63"/>
</g>
<g>
	<rect x="188.9" y="157.7" class="st0" width="63" height="63"/>
</g>
<g>
	<path class="st1" d="M63,220.6h31.5c0-17.3,14.1-31.4,31.4-31.4s31.4,14.1,31.4,31.4h31.6v-62.8H63V220.6z"/>
</g>
<g>
	<path class="st2" d="M189.3,95c0-34.8-28.2-63-63-63s-63,28.2-63,63H189.3z"/>
</g>
<g>
	<polygon class="st1" points="251.8,157.8 188.8,157.8 188.8,94.8 	"/>
</g>
<g>
	<polygon class="st1" points="125.9,95 188.9,95 188.9,158 	"/>
</g>
<g>
	<polygon class="st1" points="0.3,157.8 63.3,157.8 63.3,94.8 	"/>
</g>
<g>
	<polygon class="st1" points="126.2,95 63.2,95 63.2,158 	"/>
</g>
<polygon class="st3" points="125.9,95 189.1,158 62.7,158 "/>
</svg>
